<svg width="24" height="24" viewBox="0 0 24 24" fill="none" xmlns="http://www.w3.org/2000/svg">
<path d="M18.2192 7.71927C18.2889 7.64959 18.3717 7.59431 18.4627 7.5566C18.5537 7.51889 18.6513 7.49948 18.7499 7.49948C18.8484 7.49948 18.946 7.51889 19.037 7.5566C19.1281 7.59431 19.2108 7.64959 19.2805 7.71927C19.3502 7.78895 19.4055 7.87168 19.4432 7.96272C19.4809 8.05377 19.5003 8.15135 19.5003 8.2499C19.5003 8.34844 19.4809 8.44602 19.4432 8.53707C19.4055 8.62811 19.3502 8.71084 19.2805 8.78052L11.7805 16.2805C11.7108 16.3503 11.6281 16.4056 11.5371 16.4433C11.446 16.4811 11.3484 16.5005 11.2499 16.5005C11.1513 16.5005 11.0537 16.4811 10.9627 16.4433C10.8716 16.4056 10.7889 16.3503 10.7192 16.2805L3.21924 8.78052C3.07851 8.63979 2.99945 8.44892 2.99945 8.2499C2.99945 8.05087 3.07851 7.86 3.21924 7.71927C3.35997 7.57854 3.55084 7.49948 3.74987 7.49948C3.94889 7.49948 4.13976 7.57854 4.28049 7.71927L11.2499 14.6896L18.2192 7.71927Z" fill="#111111"/>
</svg>
