<svg width="24" height="24" viewBox="0 0 24 24" fill="none" xmlns="http://www.w3.org/2000/svg">
<path d="M9.23538 19.3526C9.20651 19.2086 9.13568 19.0751 9.0303 18.9698C8.88965 18.8291 8.69894 18.75 8.50003 18.75C8.30112 18.75 8.11041 18.8291 7.96976 18.9698C7.8291 19.1104 7.75003 19.3011 7.75003 19.5C7.75003 19.6989 7.8291 19.8896 7.96976 20.0303C8.11041 20.171 8.30112 20.25 8.50003 20.25C8.69894 20.25 8.88965 20.171 9.0303 20.0303C9.17095 19.8896 9.25003 19.6989 9.25003 19.5L9.23538 19.3526ZM17.25 19.5C17.25 19.3011 17.171 19.1104 17.0303 18.9698C16.8896 18.8291 16.6989 18.75 16.5 18.75C16.3011 18.75 16.1104 18.8291 15.9698 18.9698C15.8291 19.1104 15.75 19.3011 15.75 19.5L15.7647 19.6475C15.7936 19.7915 15.8644 19.9249 15.9698 20.0303C16.1104 20.171 16.3011 20.25 16.5 20.25C16.6989 20.25 16.8896 20.171 17.0303 20.0303C17.171 19.8896 17.25 19.6989 17.25 19.5ZM2.78714 2.28128C3.18426 2.1638 3.60118 2.39009 3.71878 2.78714L4.26956 4.65042H18.9239C20.7647 4.65042 22.1695 6.36641 21.6387 8.16116L19.9844 13.7608C19.6307 14.9537 18.5123 15.75 17.2696 15.75H8.11233C6.86902 15.75 5.7492 14.9535 5.39651 13.7608L2.99026 5.61233L2.99124 5.61136L2.28128 3.21292C2.1638 2.8158 2.39009 2.39888 2.78714 2.28128ZM6.83499 13.335C6.9903 13.8602 7.50165 14.25 8.11233 14.25H17.2696C17.8788 14.25 18.3896 13.862 18.5459 13.335L20.2002 7.73538L20.2325 7.59183C20.3501 6.87411 19.7818 6.15042 18.9239 6.15042H4.7139L6.83499 13.335ZM10.7393 19.7227C10.6881 20.2377 10.46 20.7217 10.0908 21.0908C9.66889 21.5128 9.09677 21.75 8.50003 21.75C7.90329 21.75 7.33116 21.5128 6.90921 21.0908C6.48725 20.6689 6.25003 20.0968 6.25003 19.5C6.25003 18.9033 6.48725 18.3312 6.90921 17.9092C7.33116 17.4873 7.90329 17.25 8.50003 17.25C9.09677 17.25 9.66889 17.4873 10.0908 17.9092C10.5128 18.3312 10.75 18.9033 10.75 19.5L10.7393 19.7227ZM18.75 19.5C18.75 20.0968 18.5128 20.6689 18.0908 21.0908C17.6689 21.5128 17.0968 21.75 16.5 21.75C15.9033 21.75 15.3312 21.5128 14.9092 21.0908C14.5401 20.7217 14.312 20.2377 14.2608 19.7227L14.25 19.5C14.25 18.9033 14.4873 18.3312 14.9092 17.9092C15.3312 17.4873 15.9033 17.25 16.5 17.25C17.0968 17.25 17.6689 17.4873 18.0908 17.9092C18.5128 18.3312 18.75 18.9033 18.75 19.5Z" fill="black"/>
</svg>
