<svg width="60" height="60" viewBox="0 0 60 60" fill="none" xmlns="http://www.w3.org/2000/svg">
<path d="M13.8 27.9199C13.8001 27.8439 13.7826 27.7685 13.7493 27.7002C13.7159 27.632 13.6675 27.5721 13.6077 27.5254C13.5478 27.4787 13.4779 27.4464 13.4036 27.4307C13.3662 27.4228 13.3282 27.4192 13.2903 27.4199L13.178 27.4346L10.0432 28.2197L10.0422 28.2207L8.83032 28.5225C7.96499 28.7388 7.1967 29.2384 6.64771 29.9414C6.09877 30.6443 5.80025 31.5105 5.80005 32.4023V37.0947L5.81372 37.4277C5.87838 38.2008 6.1673 38.9415 6.64771 39.5566C7.19669 40.2594 7.96513 40.7583 8.83032 40.9746L13.1799 42.0625H13.179C13.2526 42.0808 13.3303 42.0822 13.4045 42.0664C13.4787 42.0506 13.5479 42.0174 13.6077 41.9707C13.6675 41.924 13.716 41.8641 13.7493 41.7959C13.7659 41.7618 13.7789 41.7262 13.7874 41.6895L13.8 41.5771V27.9199ZM23.3137 50.0215C23.3762 50.6511 23.6544 51.243 24.1057 51.6943C24.6214 52.2101 25.3207 52.5 26.05 52.5H33.55C34.2794 52.5 34.9787 52.2101 35.4944 51.6943C36.0101 51.1786 36.3 50.4793 36.3 49.75L36.2864 49.4785C36.2239 48.8489 35.9457 48.257 35.4944 47.8057C34.9787 47.2899 34.2794 47 33.55 47H26.05C25.3207 47 24.6214 47.2899 24.1057 47.8057C23.59 48.3214 23.3 49.0207 23.3 49.75L23.3137 50.0215ZM15.8 41.5781C15.7999 41.9577 15.7136 42.3327 15.5471 42.6738C15.3806 43.0149 15.1382 43.3132 14.8391 43.5469C14.54 43.7805 14.1917 43.9435 13.8206 44.0225C13.4492 44.1014 13.064 44.0947 12.6956 44.0029H12.6946L8.34497 42.915C7.04704 42.5906 5.89501 41.8415 5.07153 40.7871C4.29953 39.7985 3.8573 38.5947 3.80493 37.3457L3.80005 37.0947V32.4023C3.80025 31.0644 4.24803 29.7645 5.07153 28.71C5.89502 27.6557 7.04711 26.9064 8.34497 26.582H8.34595L8.80005 26.4678V26C8.80005 20.4305 11.0122 15.0887 14.9504 11.1504C18.8887 7.21213 24.2305 5 29.8 5C35.3696 5 40.7114 7.21213 44.6497 11.1504C48.5879 15.0887 50.8 20.4305 50.8 26V26.4678L51.2542 26.582H51.2551C52.553 26.9064 53.7051 27.6557 54.5286 28.71C55.3521 29.7645 55.7998 31.0644 55.8 32.4023V37.0947L55.7952 37.3457C55.7428 38.5947 55.3006 39.7985 54.5286 40.7871C53.7051 41.8415 52.553 42.5896 51.2551 42.9141L51.2561 42.915L50.8 43.0293V44.75C50.8 46.3413 50.1675 47.867 49.0422 48.9922C47.917 50.1174 46.3913 50.75 44.8 50.75H38.1926C38.0016 51.6366 37.5596 52.4572 36.9084 53.1084C36.0176 53.9992 34.8098 54.5 33.55 54.5H26.05C24.7903 54.5 23.5824 53.9992 22.6917 53.1084C21.8565 52.2732 21.3641 51.1594 21.3059 49.9854L21.3 49.75C21.3 48.4902 21.8009 47.2824 22.6917 46.3916C23.5824 45.5008 24.7903 45 26.05 45H33.55C34.8098 45 36.0176 45.5008 36.9084 46.3916C37.5596 47.0428 38.0016 47.8634 38.1926 48.75H44.8C45.8609 48.75 46.878 48.3283 47.6282 47.5781C48.3783 46.828 48.8 45.8109 48.8 44.75V43.5303L46.9045 44.0029C46.5361 44.0947 46.1509 44.1014 45.7795 44.0225C45.4084 43.9435 45.0601 43.7805 44.761 43.5469C44.4619 43.3132 44.2195 43.0149 44.053 42.6738C43.8865 42.3327 43.8002 41.9577 43.8 41.5781V27.9199C43.8002 27.5403 43.8865 27.1654 44.053 26.8242C44.2195 26.483 44.4618 26.1839 44.761 25.9502C45.06 25.7166 45.4084 25.5546 45.7795 25.4756C46.1509 25.3966 46.5361 25.4034 46.9045 25.4951H46.9055L48.7991 25.9688C48.7908 20.9409 46.7904 16.1213 43.2346 12.5654C39.6714 9.00224 34.8392 7 29.8 7C24.7609 7 19.9287 9.00224 16.3655 12.5654C12.8097 16.1213 10.8083 20.9409 10.8 25.9688L12.6917 25.4951L12.8303 25.4648C13.1562 25.4025 13.4921 25.4048 13.8176 25.4736C14.1894 25.5523 14.5385 25.7155 14.8381 25.9492C15.1376 26.183 15.3805 26.4818 15.5471 26.8232C15.7138 27.1647 15.8001 27.5399 15.8 27.9199V41.5781ZM45.8 41.5771L45.8127 41.6895C45.8212 41.7262 45.8342 41.7618 45.8508 41.7959C45.8841 41.8641 45.9326 41.924 45.9924 41.9707C46.0522 42.0174 46.1214 42.0506 46.1956 42.0664C46.2696 42.0821 46.3467 42.0807 46.4202 42.0625L49.5579 41.2793L50.7688 40.9756L50.7698 40.9746C51.635 40.7583 52.4034 40.2594 52.9524 39.5566C53.5014 38.8536 53.7999 37.9867 53.8 37.0947V32.4023C53.7998 31.5105 53.5013 30.6443 52.9524 29.9414C52.4034 29.2384 51.6351 28.7388 50.7698 28.5225L49.5579 28.2207L49.5569 28.2197L46.4202 27.4355V27.4346C46.3467 27.4164 46.2695 27.4159 46.1956 27.4316C46.1216 27.4475 46.0521 27.4798 45.9924 27.5264C45.9326 27.5731 45.8841 27.633 45.8508 27.7012C45.8176 27.7693 45.8001 27.8441 45.8 27.9199V41.5771Z" fill="black"/>
</svg>
