<svg width="24" height="24" viewBox="0 0 24 24" fill="none" xmlns="http://www.w3.org/2000/svg">
<path d="M4.28051 16.2807C4.21083 16.3504 4.1281 16.4057 4.03706 16.4434C3.94601 16.4811 3.84843 16.5005 3.74989 16.5005C3.65134 16.5005 3.55376 16.4811 3.46271 16.4434C3.37167 16.4057 3.28894 16.3504 3.21926 16.2807C3.14958 16.211 3.0943 16.1283 3.05659 16.0372C3.01888 15.9462 2.99947 15.8486 2.99947 15.7501C2.99947 15.6515 3.01888 15.5539 3.05659 15.4629C3.0943 15.3719 3.14958 15.2891 3.21926 15.2194L10.7193 7.71945C10.7889 7.64971 10.8716 7.59439 10.9627 7.55665C11.0537 7.51891 11.1513 7.49948 11.2499 7.49948C11.3484 7.49948 11.446 7.51891 11.5371 7.55665C11.6281 7.59439 11.7109 7.64971 11.7805 7.71945L19.2805 15.2194C19.4212 15.3602 19.5003 15.551 19.5003 15.7501C19.5003 15.9491 19.4212 16.14 19.2805 16.2807C19.1398 16.4214 18.9489 16.5005 18.7499 16.5005C18.5509 16.5005 18.36 16.4214 18.2193 16.2807L11.2499 9.31038L4.28051 16.2807Z" fill="#111111"/>
</svg>
