<svg width="60" height="60" viewBox="0 0 60 60" fill="none" xmlns="http://www.w3.org/2000/svg">
<path d="M51.5 20C51.5 16.95 50.2885 14.0248 48.1318 11.8682C45.9752 9.7115 43.05 8.5 40 8.5H20C16.95 8.5 14.0248 9.7115 11.8682 11.8682C9.7115 14.0248 8.5 16.95 8.5 20V40C8.5 43.05 9.7115 45.9752 11.8682 48.1318C14.0248 50.2885 16.95 51.5 20 51.5H40C43.05 51.5 45.9752 50.2885 48.1318 48.1318C50.2885 45.9752 51.5 43.05 51.5 40V20ZM38.9893 29.5537C38.8789 27.3292 37.9466 25.2181 36.3643 23.6357C34.7819 22.0534 32.6708 21.1211 30.4463 21.0107L30 21C27.6131 21 25.3236 21.9479 23.6357 23.6357C21.9479 25.3236 21 27.6131 21 30C21 32.3869 21.9479 34.6764 23.6357 36.3643C25.3236 38.0521 27.6131 39 30 39L30.4463 38.9893C32.6708 38.8789 34.7819 37.9466 36.3643 36.3643C38.0521 34.6764 39 32.3869 39 30L38.9893 29.5537ZM43.0352 15.5752C43.4066 15.1666 44.0386 15.1364 44.4473 15.5078C44.8559 15.8793 44.8862 16.5113 44.5146 16.9199L44.4902 16.9473C44.1187 17.3559 43.4858 17.3862 43.0771 17.0146C42.6688 16.6432 42.6386 16.0111 43.0098 15.6025L43.0352 15.5752ZM40.9863 30.5459C40.8513 33.2645 39.7122 35.8445 37.7783 37.7783C35.8445 39.7122 33.2645 40.8513 30.5459 40.9863L30 41C27.0826 41 24.2846 39.8412 22.2217 37.7783C20.1588 35.7154 19 32.9174 19 30C19 27.0826 20.1588 24.2846 22.2217 22.2217C24.2846 20.1588 27.0826 19 30 19L30.5459 19.0137C33.2645 19.1487 35.8445 20.2878 37.7783 22.2217C39.8412 24.2846 41 27.0826 41 30L40.9863 30.5459ZM53.5 40C53.5 43.5804 52.0776 47.0142 49.5459 49.5459C47.0142 52.0776 43.5804 53.5 40 53.5H20C16.4196 53.5 12.9858 52.0776 10.4541 49.5459C7.92236 47.0142 6.5 43.5804 6.5 40V20C6.5 16.4196 7.92236 12.9858 10.4541 10.4541C12.9858 7.92236 16.4196 6.5 20 6.5H40C43.5804 6.5 47.0142 7.92236 49.5459 10.4541C52.0776 12.9858 53.5 16.4196 53.5 20V40Z" fill="black"/>
</svg>
