<svg width="24" height="24" viewBox="0 0 24 24" fill="none" xmlns="http://www.w3.org/2000/svg">
<path d="M12 12.75C15.9421 12.75 19.987 15.3137 20.249 20.4619C20.2701 20.8756 19.9518 21.228 19.5381 21.249C19.1244 21.2701 18.772 20.9518 18.751 20.5381C18.538 16.3534 15.3204 14.25 12 14.25C8.67957 14.25 5.46203 16.3534 5.24903 20.5381C5.22798 20.9518 4.87559 21.2701 4.46192 21.249C4.04826 21.228 3.72995 20.8756 3.75099 20.4619C4.013 15.3137 8.05796 12.75 12 12.75ZM14.25 7.5C14.25 6.90326 14.0128 6.33114 13.5908 5.90918C13.1689 5.48722 12.5967 5.25 12 5.25C11.4033 5.25 10.8311 5.48722 10.4092 5.90918C9.98723 6.33114 9.75001 6.90326 9.75001 7.5C9.75001 8.09674 9.98723 8.66886 10.4092 9.09082C10.8311 9.51278 11.4033 9.75 12 9.75C12.5967 9.75 13.1689 9.51278 13.5908 9.09082C14.0128 8.66886 14.25 8.09674 14.25 7.5ZM15.75 7.5C15.75 8.49456 15.3546 9.44811 14.6514 10.1514C13.9481 10.8546 12.9946 11.25 12 11.25C11.0054 11.25 10.0519 10.8546 9.34864 10.1514C8.64538 9.44811 8.25001 8.49456 8.25001 7.5C8.25001 6.50544 8.64538 5.55189 9.34864 4.84863C10.0519 4.14537 11.0054 3.75 12 3.75C12.9946 3.75 13.9481 4.14537 14.6514 4.84863C15.3546 5.55189 15.75 6.50544 15.75 7.5Z" fill="black"/>
</svg>
