<svg width="24" height="24" viewBox="0 0 24 24" fill="none" xmlns="http://www.w3.org/2000/svg">
<path d="M18.2754 11.5C18.2754 9.7102 17.563 7.99351 16.2949 6.72754C15.0268 5.46156 13.3067 4.75 11.5127 4.75C9.71874 4.75 7.99861 5.46156 6.73047 6.72754C5.46236 7.99351 4.75 9.7102 4.75 11.5L4.75879 11.835C4.84176 13.5028 5.5417 15.0857 6.73047 16.2725C7.99861 17.5384 9.71874 18.25 11.5127 18.25C13.3067 18.25 15.0268 17.5384 16.2949 16.2725C17.563 15.0065 18.2754 13.2898 18.2754 11.5ZM19.7656 11.9092C19.6764 13.7049 18.9993 15.4177 17.8477 16.792L20.5303 19.4688C20.8234 19.7614 20.8239 20.2371 20.5312 20.5303C20.2386 20.8234 19.7629 20.8239 19.4697 20.5312L16.7842 17.8506C15.308 19.0723 13.4457 19.75 11.5127 19.75C9.32177 19.75 7.22054 18.8809 5.6709 17.334C4.12121 15.7869 3.25 13.6884 3.25 11.5C3.25 9.31155 4.12121 7.21309 5.6709 5.66602C7.22054 4.11907 9.32177 3.25 11.5127 3.25C13.7036 3.25 15.8049 4.11906 17.3545 5.66602C18.9042 7.21309 19.7754 9.31155 19.7754 11.5L19.7656 11.9092Z" fill="#111111"/>
</svg>
