<svg width="60" height="60" viewBox="0 0 60 60" fill="none" xmlns="http://www.w3.org/2000/svg">
<path d="M44 20C44 16.287 42.5249 12.7261 39.8994 10.1006C37.274 7.4751 33.713 6.00002 30 6C26.287 6 22.7261 7.4751 20.1006 10.1006C17.4751 12.7261 16 16.287 16 20C16 24.1903 18.2612 28.6178 21.1192 32.5088C23.9365 36.3444 27.2254 39.5125 29.1114 41.207C29.3689 41.3968 29.6797 41.501 30 41.501C30.3201 41.501 30.6303 41.3965 30.8877 41.207C32.7746 39.5128 36.0645 36.3449 38.8819 32.5088C41.7395 28.6179 44 24.1904 44 20ZM12.3926 36.0049C12.1199 36.0265 11.857 36.1224 11.6338 36.2832C11.3791 36.4669 11.1876 36.7256 11.0879 37.0234L11.0889 37.0244L6.07816 52.0244C6.0028 52.2499 5.98193 52.4906 6.01761 52.7256C6.05331 52.9603 6.14458 53.1832 6.28323 53.376C6.42206 53.5688 6.60498 53.7265 6.81644 53.835C7.02789 53.9433 7.26241 53.9998 7.50003 54H52.4991C52.7366 53.9998 52.9713 53.9433 53.1826 53.835C53.3938 53.7267 53.5761 53.5695 53.7149 53.377C53.8536 53.1843 53.9446 52.9612 53.9805 52.7266C54.0163 52.4918 53.9959 52.2517 53.9209 52.0264L48.9209 37.0264C48.8214 36.7276 48.6305 36.4674 48.375 36.2832C48.1196 36.0991 47.8129 36 47.4981 36H38.6875C36.2347 38.9599 33.7299 41.3473 32.1846 42.7324C32.1652 42.7498 32.1447 42.7664 32.1241 42.7822C31.5139 43.2481 30.7677 43.501 30 43.501C29.2322 43.501 28.4852 43.2483 27.875 42.7822C27.8543 42.7664 27.8339 42.7499 27.8145 42.7324C26.2703 41.3474 23.7656 38.9601 21.3125 36H12.5108L12.3926 36.0049ZM34 20C34 17.7909 32.2091 16 30 16C27.7909 16 26 17.7909 26 20C26 22.2091 27.7909 24 30 24C32.2091 24 34 22.2091 34 20ZM36 20C36 23.3137 33.3137 26 30 26C26.6863 26 24 23.3137 24 20C24 16.6863 26.6863 14 30 14C33.3137 14 36 16.6863 36 20ZM45.9922 20.4541C45.8383 25.1451 43.3327 29.8262 40.4932 33.6924C40.4172 33.7958 40.3393 33.8975 40.2627 34H47.4971C48.232 33.9998 48.9488 34.2314 49.545 34.6611C50.1407 35.0907 50.5862 35.6967 50.8184 36.3936L55.8184 51.3936C55.9935 51.9193 56.0415 52.4795 55.958 53.0273C55.8745 53.5753 55.6619 54.0962 55.3379 54.5459C55.014 54.9955 54.5878 55.3615 54.0948 55.6143C53.6016 55.867 53.0552 55.9995 52.501 56H7.49905C6.94452 55.9997 6.39782 55.8672 5.90433 55.6143C5.41084 55.3612 4.98418 54.995 4.66019 54.5449C4.33615 54.0948 4.12432 53.5738 4.04105 53.0254C3.95779 52.477 4.00585 51.9167 4.18167 51.3906L9.19144 36.3906L9.28909 36.1338C9.53835 35.546 9.94401 35.0354 10.4649 34.6602C11.0603 34.2312 11.7759 34.0003 12.5098 34H19.7383C19.6617 33.8975 19.5838 33.7958 19.5078 33.6924C16.5765 29.7015 14 24.8422 14 20C14 15.7565 15.686 11.6871 18.6866 8.68652C21.6871 5.68597 25.7566 4 30 4C34.2435 4.00002 38.3129 5.68596 41.3135 8.68652C44.3141 11.6871 46 15.7566 46 20L45.9922 20.4541Z" fill="black"/>
</svg>
