<svg width="24" height="24" viewBox="0 0 24 24" fill="none" xmlns="http://www.w3.org/2000/svg">
<path d="M21.5001 12C21.5001 6.75311 17.2469 2.49997 12.0001 2.49997C6.75321 2.49997 2.50006 6.75311 2.50006 12C2.50006 17.2468 6.75321 21.5 12.0001 21.5C17.2469 21.5 21.5001 17.2468 21.5001 12ZM12.1465 8.14645C12.3418 7.95119 12.6583 7.95119 12.8536 8.14645L16.3536 11.6465C16.5488 11.8417 16.5488 12.1582 16.3536 12.3535L12.8536 15.8535C12.6583 16.0487 12.3418 16.0487 12.1465 15.8535C11.9513 15.6582 11.9513 15.3417 12.1465 15.1465L14.793 12.5H8.00006C7.72392 12.5 7.50006 12.2761 7.50006 12C7.50006 11.7238 7.72392 11.5 8.00006 11.5H14.793L12.1465 8.85349C11.9513 8.65822 11.9513 8.34172 12.1465 8.14645ZM22.5001 12C22.5001 17.7991 17.7992 22.5 12.0001 22.5C6.20092 22.5 1.50006 17.7991 1.50006 12C1.50006 6.20083 6.20092 1.49997 12.0001 1.49997C17.7992 1.49997 22.5001 6.20083 22.5001 12Z" fill="#111111"/>
</svg>
